<svg id="visual" viewBox="0 0 1800 600" width="1800" height="600" xmlns="http://www.w3.org/2000/svg" xmlns:xlink="http://www.w3.org/1999/xlink" version="1.1"><path d="M1224 600L1199 575C1174 550 1124 500 1106 450C1088 400 1102 350 1124.5 300C1147 250 1178 200 1155 150C1132 100 1055 50 1016.5 25L978 0L1800 0L1800 25C1800 50 1800 100 1800 150C1800 200 1800 250 1800 300C1800 350 1800 400 1800 450C1800 500 1800 550 1800 575L1800 600Z" fill="#bd3abf" stroke-linecap="round" stroke-linejoin="miter"></path></svg>